HIERARCHY
ROOT Hips
{
    OFFSET 0.000000 0.000000 0.000000
    CHANNELS 6 Xposition Yposition Zposition Zrotation Xrotation Yrotation
    JOINT Spine
    {
        OFFSET -0.000000 7.236184 0.000000
        CHANNELS 3 Zrotation Xrotation Yrotation
        JOINT Spine1
        {
            OFFSET -0.000000 20.420147 0.000000
            CHANNELS 3 Zrotation Xrotation Yrotation
            JOINT Neck
            {
                OFFSET -0.000000 20.336288 1.848754
                CHANNELS 3 Zrotation Xrotation Yrotation
                JOINT Head
                {
                    OFFSET -0.000000 12.354461 -1.764923
                    CHANNELS 3 Zrotation Xrotation Yrotation
                    End Site
                    {
                        OFFSET -0.000000 22.061537 0.000000
                    }
                }
            }
            JOINT LeftShoulder
            {
                OFFSET 3.573296 18.396038 -0.314103
                CHANNELS 3 Zrotation Xrotation Yrotation
                JOINT LeftArm
                {
                    OFFSET 10.880760 0.000000 0.000000
                    CHANNELS 3 Zrotation Xrotation Yrotation
                    JOINT LeftForeArm
                    {
                        OFFSET 27.185530 0.000000 0.000000
                        CHANNELS 3 Zrotation Xrotation Yrotation
                        JOINT LeftHand
                        {
                            OFFSET 27.825975 0.000000 0.000000
                            CHANNELS 3 Zrotation Xrotation Yrotation
                            End Site
                            {
                                OFFSET 13.236923 0.000000 0.000000
                            }
                        }
                    }
                }
            }
            JOINT RightShoulder
            {
                OFFSET -3.474926 18.396038 -0.314103
                CHANNELS 3 Zrotation Xrotation Yrotation
                JOINT RightArm
                {
                    OFFSET -10.880760 0.000000 0.000000
                    CHANNELS 3 Zrotation Xrotation Yrotation
                    JOINT RightForeArm
                    {
                        OFFSET -27.185530 0.000000 0.000000
                        CHANNELS 3 Zrotation Xrotation Yrotation
                        JOINT RightHand
                        {
                            OFFSET -27.825975 0.000000 0.000000
                            CHANNELS 3 Zrotation Xrotation Yrotation
                            End Site
                            {
                                OFFSET -13.236923 0.000000 0.000000
                            }
                        }
                    }
                }
            }
        }
    }
    JOINT LeftUpLeg
    {
        OFFSET 8.824615 0.000000 0.000000
        CHANNELS 3 Zrotation Xrotation Yrotation
        JOINT LeftLeg
        {
            OFFSET -0.000000 -35.111282 0.000000
            CHANNELS 3 Zrotation Xrotation Yrotation
            JOINT LeftFoot
            {
                OFFSET -0.000000 -42.324711 0.000000
                CHANNELS 3 Zrotation Xrotation Yrotation
                JOINT LeftToeBase
                {
                    OFFSET -0.000000 -5.735999 13.236923
                    CHANNELS 3 Zrotation Xrotation Yrotation
                    End Site
                    {
                        OFFSET -0.000000 0.000000 3.529846
                    }
                }
            }
        }
    }
    JOINT RightUpLeg
    {
        OFFSET -8.824615 0.000000 0.000000
        CHANNELS 3 Zrotation Xrotation Yrotation
        JOINT RightLeg
        {
            OFFSET -0.000000 -35.111282 0.000000
            CHANNELS 3 Zrotation Xrotation Yrotation
            JOINT RightFoot
            {
                OFFSET -0.000000 -42.324711 0.000000
                CHANNELS 3 Zrotation Xrotation Yrotation
                JOINT RightToeBase
                {
                    OFFSET -0.000000 -5.735999 13.236923
                    CHANNELS 3 Zrotation Xrotation Yrotation
                    End Site
                    {
                        OFFSET -0.000000 0.000000 3.529846
                    }
                }
            }
        }
    }
}
MOTION
Frames:    8
Frame Time:    0.008333
3.273311    81.272003    107.710815    0.517874    -9.426955    -176.163620    -1.740111    -8.454304    0.751057    1.087812    6.134141    0.821416    2.377471    7.480281    -3.811993    6.312704    -3.698169    -3.060915    0.411519    17.966122    -0.720823    -52.541496    36.616516    -35.220692    3.186938    -7.909573    -13.511424    18.059175    -7.155610    2.409186    6.737691    19.043087    -7.036228    42.735779    43.479191    33.541626    -3.119204    -10.370148    20.352621    -14.842948    -9.283278    -4.167032    1.210491    -19.844275    -3.017417    -1.908078    24.267103    5.075146    -4.038785    -11.874461    -10.750450    0.491766    0.049100    -0.545057    -3.706540    -13.877915    4.470014    3.689035    16.536541    2.373281    0.571803    -8.780992    -16.439207    -0.213671    -1.977290    0.231742    
3.312182    81.254837    107.778046    0.533245    -9.501632    -176.510773    -1.778975    -8.309930    0.735630    1.134920    6.067512    0.804800    2.507668    7.330946    -3.651751    6.180542    -3.755664    -2.928069    0.438164    17.939272    -0.709014    -52.718979    36.483540    -34.959198    3.190997    -7.919522    -13.532522    18.085545    -7.165415    2.399943    6.755779    19.036192    -7.018580    42.559837    43.402340    33.745243    -3.225880    -10.400599    20.491209    -14.764129    -9.299679    -4.121308    1.393763    -20.073355    -2.595197    -1.946232    24.531139    5.031863    -4.045490    -11.951642    -10.715288    0.500544    0.015834    -0.554820    -3.819925    -14.723493    4.607821    4.098999    17.635500    2.019999    0.927836    -8.711114    -16.036018    -0.206722    -2.362295    0.224329    
3.351033    81.237450    107.845398    0.548441    -9.574652    -176.859528    -1.820069    -8.167139    0.720494    1.185207    6.004659    0.788298    2.637387    7.186076    -3.491407    6.050765    -3.816136    -2.794872    0.464602    17.912632    -0.699613    -52.888306    36.356060    -34.702988    3.193362    -7.932512    -13.553250    18.110580    -7.178136    2.392998    6.774506    19.028675    -6.999789    42.386253    43.322197    33.944241    -3.330690    -10.431937    20.631964    -14.688094    -9.316674    -4.076654    1.577873    -20.298231    -2.187051    -1.985932    24.793421    5.003996    -4.052739    -12.029270    -10.679925    0.507703    -0.017500    -0.562788    -3.928642    -15.567575    4.740951    4.510656    18.729883    1.648648    1.292342    -8.635235    -15.624283    -0.201515    -2.741262    0.218798    
3.390470    81.219322    107.913742    0.564261    -9.645203    -177.215668    -1.863037    -8.023921    0.705494    1.240110    5.946416    0.771820    2.766362    7.045486    -3.329287    5.923838    -3.881261    -2.659441    0.490546    17.886089    -0.693818    -53.045872    36.236259    -34.453087    3.192649    -7.950005    -13.571731    18.132851    -7.195421    2.388762    6.793025    19.020149    -6.978854    42.216923    43.234806    34.137859    -3.435147    -10.464314    20.775908    -14.616366    -9.334194    -4.032003    1.763882    -20.519102    -1.801047    -2.029805    25.056011    5.005024    -4.060928    -12.109137    -10.644011    0.512045    -0.051496    -0.567636    -4.038433    -16.417923    4.868896    4.935078    19.829376    1.240646    1.677096    -8.552518    -15.186335    -0.196427    -3.117823    0.213390    
3.430443    81.200317    107.982841    0.580769    -9.711951    -177.579285    -1.907161    -7.881020    0.691040    1.299793    5.894329    0.755558    2.892967    6.910914    -3.166367    5.800993    -3.950427    -2.522318    0.515403    17.859787    -0.692707    -53.186508    36.127922    -34.213802    3.188141    -7.972826    -13.585731    18.149769    -7.218265    2.387437    6.810444    19.009354    -6.954647    42.057297    43.138721    34.320614    -3.539144    -10.497401    20.921768    -14.551590    -9.351951    -3.987015    1.950610    -20.733473    -1.447830    -2.080681    25.316843    5.047123    -4.070080    -12.191420    -10.609216    0.512983    -0.086395    -0.568712    -4.153165    -17.269915    4.986463    5.374367    20.927334    0.787486    2.087395    -8.463069    -14.712819    -0.189951    -3.490070    0.206466    
3.471122    81.180138    108.052704    0.597754    -9.774104    -177.952225    -1.952901    -7.738383    0.677320    1.366438    5.849367    0.739595    3.013811    6.783067    -3.002841    5.683825    -4.023213    -2.383193    0.537319    17.833397    -0.696697    -53.306110    36.033569    -33.987247    3.178381    -8.001077    -13.593653    18.158937    -7.247106    2.388777    6.824472    18.995033    -6.926988    41.911491    43.032688    34.489902    -3.642757    -10.530696    21.068293    -14.495941    -9.369436    -3.941081    2.138628    -20.940187    -1.131136    -2.141566    25.575268    5.140928    -4.081746    -12.276040    -10.580400    0.510213    -0.122125    -0.565678    -4.277311    -18.124130    5.087382    5.830797    22.024952    0.283835    2.529608    -8.367334    -14.195878    -0.180707    -3.858385    0.196526    
3.512815    81.158501    108.123604    0.614675    -9.831660    -178.337402    -1.997514    -7.595009    0.664511    1.433028    5.809693    0.724371    3.134752    6.663952    -2.837684    5.569347    -4.098940    -2.241934    0.561812    17.809113    -0.705769    -53.403595    35.953930    -33.776325    3.162872    -8.033862    -13.592405    18.158020    -7.281311    2.392139    6.839386    18.977829    -6.893764    41.780804    42.915119    34.642899    -3.746127    -10.564671    21.215595    -14.451317    -9.387027    -3.894228    2.329547    -21.139513    -0.849707    -2.215434    25.831770    5.293507    -4.096474    -12.363256    -10.562165    0.503980    -0.158353    -0.558803    -4.416099    -18.984732    5.163813    6.306138    23.128067    -0.271075    3.009972    -8.265681    -13.631023    -0.167215    -4.224697    0.181951    
3.555806    81.135056    108.195564    0.630845    -9.884809    -178.736801    -2.044354    -7.451639    0.652847    1.508408    5.776769    0.709891    3.245728    6.552146    -2.671695    5.460594    -4.174873    -2.098066    0.581712    17.784203    -0.720759    -53.474419    35.892101    -33.579926    3.140315    -8.070624    -13.581648    18.145199    -7.320438    2.398134    6.847453    18.959354    -6.857413    41.668102    42.783688    34.783257    -3.849310    -10.598519    21.361364    -14.419724    -9.404040    -3.845855    2.525226    -21.332100    -0.599473    -2.304887    26.087421    5.505581    -4.114392    -12.453587    -10.556462    0.494635    -0.194833    -0.548478    -4.574543    -19.854465    5.206141    6.799131    24.241301    -0.869304    3.531689    -8.158886    -13.021935    -0.148577    -4.591005    0.161760    
